<svg width="1440" height="1024" viewBox="0 0 1440 1024" fill="none" xmlns="http://www.w3.org/2000/svg">
<path d="M726.649 279.746L770.031 411.472C774.488 425.005 787.127 434.149 801.375 434.149H941.183C947.987 434.149 950.791 442.874 945.261 446.838L832.621 527.578C820.898 535.98 815.991 551.022 820.503 564.722L863.637 695.693C865.755 702.125 858.414 707.517 852.91 703.572L739.225 622.084C727.732 613.846 712.268 613.846 700.775 622.084L587.09 703.572C581.586 707.517 574.245 702.125 576.363 695.693L619.497 564.722C624.009 551.022 619.102 535.98 607.379 527.578L494.739 446.838C489.209 442.875 492.013 434.149 498.817 434.149H638.625C652.873 434.149 665.512 425.005 669.969 411.472L713.351 279.746C715.464 273.333 724.536 273.333 726.649 279.746Z" stroke="#8A90AA" stroke-width="26"/>
</svg>
