<svg width="1500" height="1500" viewBox="0 0 1500 1500" fill="none" xmlns="http://www.w3.org/2000/svg">
<g clip-path="url(#clip0_47_166)">
<path d="M348 460C580 173.6 908.778 242.54 1050.11 307.873C923.711 344.673 902.778 475.207 908.112 535.873C906.112 571.207 924.911 659.873 1016.11 731.873C1107.31 803.873 1210.11 761.873 1250.11 731.873C1270.91 815.073 1217.44 946.54 1188.11 1001.87C1082.51 1177.87 906.223 1239.87 794.112 1239.87C682 1239.87 479.534 1261.97 336.111 1039.87C241.912 894 188 710 348 460Z" fill="#9193AB"/>
<path d="M480 1121.8C494.4 1141 476 1162.8 464 1172.8L428.5 1146L401 1121.8C415 1095.8 452.25 1084.8 480 1121.8Z" fill="#9BA0B7"/>
<path d="M482.549 503.193C432.601 540.059 359.569 508.207 339.549 473.193C339.549 473.193 376.451 418.807 413.5 389C466.306 346.516 495.5 327.5 495.5 327.5C555.439 374.975 566.549 441.193 482.549 503.193Z" fill="#9BA0B7"/>
<circle cx="478" cy="769" r="75" fill="#493B5A"/>
<circle cx="988" cy="769" r="75" fill="#493B5A"/>
<path d="M661.144 840.955C662.282 851.248 686.756 887.894 740.028 894.481C763.012 897.324 789.203 887.717 797.399 884.188C805.594 880.658 826.084 866.689 834.28 854.337C846.573 830.455 831.206 817.28 829.157 815.221C825.059 811.105 804.228 812.133 797.399 818.309C783.71 827.374 767.205 836.605 755.395 837.867C736.134 839.925 725.73 831.214 716.525 823.506L716.465 823.456C704.172 813.162 689.829 811.446 684.707 812.133C664.217 813.78 660.119 831.69 661.144 840.955Z" fill="#493B5A"/>
<path d="M432.074 658.186C432.656 654.341 445.167 640.654 472.402 638.194C484.152 637.132 497.542 640.72 501.732 642.038C505.922 643.356 516.397 648.574 520.587 653.188C526.872 662.107 519.015 667.028 517.968 667.797C515.873 669.334 505.224 668.95 501.732 666.644C494.734 663.258 486.296 659.81 480.258 659.339C470.411 658.57 465.092 661.824 460.386 664.703L460.356 664.721C454.071 668.566 446.738 669.207 444.12 668.95C433.645 668.335 431.55 661.646 432.074 658.186Z" fill="#493B5A"/>
<path d="M942.074 658.186C942.656 654.341 955.167 640.654 982.402 638.194C994.152 637.132 1007.54 640.72 1011.73 642.038C1015.92 643.356 1026.4 648.574 1030.59 653.188C1036.87 662.107 1029.02 667.028 1027.97 667.797C1025.87 669.334 1015.22 668.95 1011.73 666.644C1004.73 663.258 996.296 659.81 990.258 659.339C980.411 658.57 975.092 661.824 970.386 664.703L970.356 664.721C964.071 668.566 956.738 669.207 954.12 668.95C943.645 668.335 941.55 661.646 942.074 658.186Z" fill="#493B5A"/>
<path d="M977.538 420C977.011 421.879 976.632 423.848 976.271 425.876C972.459 451.726 995.378 462.119 1008 462.696C973.308 461.11 980.923 490.387 977.538 504C980.5 470.122 953.846 458.983 942 462.696C972.577 453.113 974.051 438.376 976.271 425.876C976.548 424 976.966 422.042 977.538 420Z" fill="#9BA0B7" stroke="#9BA0B7" stroke-width="10" stroke-linejoin="round"/>
<path d="M1077.77 462C1076.88 464.908 1076.24 467.955 1075.64 471.094C1069.23 511.1 1107.77 527.185 1129 528.077C1070.65 525.623 1083.46 570.932 1077.77 592C1082.75 539.569 1037.92 522.331 1018 528.077C1069.43 513.246 1071.9 490.439 1075.64 471.094C1076.1 468.19 1076.81 465.16 1077.77 462Z" fill="#8A90AA" stroke="#8A90AA" stroke-width="10" stroke-linejoin="round"/>
</g>
<defs>
<clipPath id="clip0_47_166">
<rect width="1500" height="1500" fill="white"/>
</clipPath>
</defs>
</svg>
