<svg width="64" height="64" viewBox="0 0 64 64" fill="none" xmlns="http://www.w3.org/2000/svg">
<g clip-path="url(#clip0_89_2)">
<path d="M31.8742 1C27.5066 1 22.2535 12.7197 20.1579 18.8897C13.5853 19.2344 0.554502 21.2061 1.01172 26.3352C1.46894 31.4642 8.9496 37.2965 12.6328 39.5715L10.8229 46.4999C8.00341 58.3299 10.8547 62.0457 12.6328 62.4248C18.9078 65.2022 28.2227 57.151 32.1599 54.6692C37.7482 57.9783 49.5798 64.0494 52.6396 61.4942C56.4381 58.3221 52.8619 45.845 51.1156 39.5715C56.0053 36.159 65.137 28.3413 62.5461 24.3704C59.9552 20.3995 48.7025 19.0621 43.4 18.8897C41.3679 13.1333 37.5777 0.999998 31.8742 1Z" fill="#8A90AA"/>
<path d="M27.0081 38.3954C27.072 38.8915 28.4469 40.6575 31.4398 40.975C32.731 41.112 34.2024 40.649 34.6628 40.4789C35.1233 40.3088 36.2744 39.6356 36.7348 39.0403C37.4255 37.8894 36.5621 37.2545 36.447 37.1552C36.2168 36.9568 35.0465 37.0064 34.6628 37.3041C33.8938 37.7409 32.9666 38.1858 32.3031 38.2466C31.221 38.3458 30.6365 37.926 30.1194 37.5545L30.116 37.5521C29.4254 37.056 28.6196 36.9733 28.3318 37.0064C27.1807 37.0858 26.9505 37.9489 27.0081 38.3954Z" fill="#2B3A61"/>
<circle cx="22" cy="36" r="3" fill="#2B3A61"/>
<ellipse cx="41.5" cy="36" rx="3.5" ry="3" fill="#2B3A61"/>
<path d="M8.3002 23.0837C9.39492 23.3935 8.92222 24.1254 8.74804 24.2195C7.55381 24.8648 4.94635 25.7993 4.46866 25.9232C3.87154 26.0781 3.19979 26.0264 3.02562 25.5102C2.82766 24.9234 3.82178 24.2195 4.46866 23.8065C5.11554 23.3935 7.20547 22.774 8.3002 23.0837Z" fill="white"/>
<path d="M23.4857 14.1714C24.1765 14.005 24.3309 14.772 24.296 14.9136C24.0567 15.8848 23.2859 17.6241 23.1199 17.9047C22.9125 18.2556 22.561 18.4689 22.2069 18.1204C21.8045 17.7242 21.9165 16.7819 22.013 16.2049C22.1095 15.6279 22.795 14.3378 23.4857 14.1714Z" fill="white"/>
<path d="M56.5002 22.7512C57.2776 23.5735 56.5611 23.9831 56.3743 23.9789C55.0936 23.9504 52.5061 23.4688 52.0529 23.3388C51.4864 23.1763 50.9484 22.794 51.0302 22.2507C51.1232 21.6331 52.2626 21.5097 52.9842 21.4691C53.7059 21.4285 55.7228 21.9288 56.5002 22.7512Z" fill="white"/>
<path d="M29.9319 3.36088C30.1074 3.63068 29.9319 3.96044 29.5419 4.79983L26.0809 11.8747C25.5772 12.8939 24.4935 14.5909 24.1311 13.7933C23.668 12.774 24.521 11.2451 25.301 9.53637C25.8753 8.27815 27.4296 5.3794 28.2258 4.14031C28.6645 3.68065 29.2884 2.37162 29.9319 3.36088Z" fill="white"/>
<path d="M15 36.9565C3.7036 32.9565 1.16915 27.3188 1.31398 25C-0.423929 28.0435 5.55012 34.1304 7.07079 35.4348C8.28733 36.4783 11.9225 38.913 13.5879 40L15 36.9565Z" fill="#54719B"/>
<path d="M49 36.9565C60.2964 32.9565 62.8308 27.3188 62.686 25C64.4239 28.0435 58.4499 34.1304 56.9292 35.4348C55.7127 36.4783 52.0775 38.913 50.4121 40L49 36.9565Z" fill="#54719B"/>
<path d="M12.7293 59.2987C11.1136 58.8506 10.373 57.2448 10.2047 56.4979C9.59886 59.2614 9.98259 64.3626 16.3646 62.6597C22.7466 60.9568 29.5931 56.722 32.2186 54.8174L35.854 57.0581C45.5481 62.3236 50.7992 63.1078 52.6168 61.7634C54.0709 60.6879 54.0979 56.6846 53.9296 54.8174C53.2227 56.722 50.779 60.2846 46.6589 59.2987C42.5389 58.3128 35.3154 52.6888 32.2186 50C18.7881 61.9875 14.7489 59.8589 12.7293 59.2987Z" fill="#54719B"/>
</g>
<defs>
<clipPath id="clip0_89_2">
<rect width="64" height="64" fill="white"/>
</clipPath>
</defs>
</svg>
